/* XPM */
static char *dcf216340a0c4e70d1c9479b316e8600cA7svknKwE91ChyX[] = {
/* columns rows colors chars-per-pixel */
"64 64 3 1 ",
"  c #000000",
". c gray24",
"X c #9B9B9B",
/* pixels */
"                                                                ",
"                                                                ",
"                                                                ",
"                                                                ",
"                                                                ",
"                                                                ",
"                                                                ",
"                                                                ",
"                                                                ",
"                                                                ",
"                                                                ",
"                                                                ",
"                            ....                                ",
"                            ....                                ",
"                            ....                                ",
"                            ....                                ",
"                        ....XXXX                                ",
"                        ....XXXX                                ",
"                        ....XXXX                                ",
"                        ....XXXX                                ",
"                        ....        ....        ....            ",
"                        ....        ....        ....            ",
"                        ....        ....        ....            ",
"                        ....        ....        ....            ",
"                    ........        XXXX........XXXX            ",
"                    ........        XXXX........XXXX            ",
"                    ........        XXXX........XXXX            ",
"                    ........        XXXX........XXXX            ",
"                    XXXXXXXX....    ....XXXXXXXX                ",
"                    XXXXXXXX....    ....XXXXXXXX                ",
"                    XXXXXXXX....    ....XXXXXXXX                ",
"                    XXXXXXXX....    ....XXXXXXXX                ",
"                            XXXX....XXXX                        ",
"                            XXXX....XXXX                        ",
"                            XXXX....XXXX                        ",
"                            XXXX....XXXX                        ",
"                                ....                            ",
"                                ....                            ",
"                                ....                            ",
"                                ....                            ",
"                                ....                            ",
"                                ....                            ",
"                                ....                            ",
"                                ....                            ",
"                        ........XXXX                            ",
"                        ........XXXX                            ",
"                        ........XXXX                            ",
"                        ........XXXX                            ",
"                        XXXXXXXX                                ",
"                        XXXXXXXX                                ",
"                        XXXXXXXX                                ",
"                        XXXXXXXX                                ",
"                                                                ",
"                                                                ",
"                                                                ",
"                                                                ",
"                                                                ",
"                                                                ",
"                                                                ",
"                                                                ",
"                                                                ",
"                                                                ",
"                                                                ",
"                                                                "
};
