/* XPM */
static char *ba06e0e96f36444594827420aa0b1157w8C2dHCsZzEUSdd4[] = {
/* columns rows colors chars-per-pixel */
"64 64 3 1 ",
"  c #000000",
". c gray24",
"X c #9B9B9B",
/* pixels */
"                                                                ",
"                                                                ",
"                                                                ",
"                                                                ",
"                                                                ",
"                                                                ",
"                                                                ",
"                                                                ",
"                        ....    ........                        ",
"                        ....    ........                        ",
"                        ....    ........                        ",
"                        ....    ........                        ",
"                        XXXX....XXXXXXXX                        ",
"                        XXXX....XXXXXXXX                        ",
"                        XXXX....XXXXXXXX                        ",
"                        XXXX....XXXXXXXX                        ",
"                        ....XXXX    ....            ........    ",
"                        ....XXXX    ....            ........    ",
"                        ....XXXX    ....            ........    ",
"                        ....XXXX    ....            ........    ",
"                ....    ....        ....        ....XXXXXXXX    ",
"                ....    ....        ....        ....XXXXXXXX    ",
"                ....    ....        ....        ....XXXXXXXX    ",
"                ....    ....        ....        ....XXXXXXXX    ",
"                ............        XXXX........XXXX            ",
"                ............        XXXX........XXXX            ",
"                ............        XXXX........XXXX            ",
"                ............        XXXX........XXXX            ",
"            ....XXXXXXXXXXXX....    ....XXXXXXXX                ",
"            ....XXXXXXXXXXXX....    ....XXXXXXXX                ",
"            ....XXXXXXXXXXXX....    ....XXXXXXXX                ",
"            ....XXXXXXXXXXXX....    ....XXXXXXXX                ",
"        ....XXXX            XXXX....XXXX                        ",
"        ....XXXX            XXXX....XXXX                        ",
"        ....XXXX            XXXX....XXXX                        ",
"        ....XXXX            XXXX....XXXX                        ",
"        XXXX                    ....                            ",
"        XXXX                    ....                            ",
"        XXXX                    ....                            ",
"        XXXX                    ....                            ",
"                    ....        ....                            ",
"                    ....        ....                            ",
"                    ....        ....                            ",
"                    ....        ....                            ",
"                    ............XXXX                            ",
"                    ............XXXX                            ",
"                    ............XXXX                            ",
"                    ............XXXX                            ",
"                ....XXXXXXXXXXXX....                            ",
"                ....XXXXXXXXXXXX....                            ",
"                ....XXXXXXXXXXXX....                            ",
"                ....XXXXXXXXXXXX....                            ",
"                XXXX            XXXX....                        ",
"                XXXX            XXXX....                        ",
"                XXXX            XXXX....                        ",
"                XXXX            XXXX....                        ",
"                                    XXXX                        ",
"                                    XXXX                        ",
"                                    XXXX                        ",
"                                    XXXX                        ",
"                                                                ",
"                                                                ",
"                                                                ",
"                                                                "
};
