/* XPM */
static char *result[] = {
/* columns rows colors chars-per-pixel */
"64 64 3 1 ",
"  c gray24",
". c #9B9B9B",
"X c #000000",
/* pixels */
"XXXXXXXX    XXXXXXXXXXXX    XXXX....XXXX    XXXX    XXXX....XXXX",
"XXXXXXXX    XXXXXXXXXXXX    XXXX....XXXX    XXXX    XXXX....XXXX",
"XXXXXXXX    XXXXXXXXXXXX    XXXX....XXXX    XXXX    XXXX....XXXX",
"XXXXXXXX    XXXXXXXXXXXX    XXXX....XXXX    XXXX    XXXX....XXXX",
"XXXXXXXX....            ....XXXXXXXXXXXX    XXXX    XXXXXXXXXXXX",
"XXXXXXXX....            ....XXXXXXXXXXXX    XXXX    XXXXXXXXXXXX",
"XXXXXXXX....            ....XXXXXXXXXXXX    XXXX    XXXXXXXXXXXX",
"XXXXXXXX....            ....XXXXXXXXXXXX    XXXX    XXXXXXXXXXXX",
"XXXX    XXXX............    XXXX        ....XXXX....    XXXXXXXX",
"XXXX    XXXX............    XXXX        ....XXXX....    XXXXXXXX",
"XXXX    XXXX............    XXXX        ....XXXX....    XXXXXXXX",
"XXXX    XXXX............    XXXX        ....XXXX....    XXXXXXXX",
"XXXX....        XXXXXXXX....    ........XXXXXXXXXXXX    XXXXXXXX",
"XXXX....        XXXXXXXX....    ........XXXXXXXXXXXX    XXXXXXXX",
"XXXX....        XXXXXXXX....    ........XXXXXXXXXXXX    XXXXXXXX",
"XXXX....        XXXXXXXX....    ........XXXXXXXXXXXX    XXXXXXXX",
"        ........    XXXX    ....XXXX        XXXXXXXX        XXXX",
"        ........    XXXX    ....XXXX        XXXXXXXX        XXXX",
"        ........    XXXX    ....XXXX        XXXXXXXX        XXXX",
"        ........    XXXX    ....XXXX        XXXXXXXX        XXXX",
"........XXXXXXXX    XXXX    XXXXXXXX    ....XXXX    ........    ",
"........XXXXXXXX    XXXX    XXXXXXXX    ....XXXX    ........    ",
"........XXXXXXXX    XXXX    XXXXXXXX    ....XXXX    ........    ",
"........XXXXXXXX    XXXX    XXXXXXXX    ....XXXX    ........    ",
"XXXXXXXXXXXXXXXX            XXXXXXXX....        ....XXXXXXXX....",
"XXXXXXXXXXXXXXXX            XXXXXXXX....        ....XXXXXXXX....",
"XXXXXXXXXXXXXXXX            XXXXXXXX....        ....XXXXXXXX....",
"XXXXXXXXXXXXXXXX            XXXXXXXX....        ....XXXXXXXX....",
"        XXXX    ............    XXXX    ....    XXXXXXXXXXXXXXXX",
"        XXXX    ............    XXXX    ....    XXXXXXXXXXXXXXXX",
"        XXXX    ............    XXXX    ....    XXXXXXXXXXXXXXXX",
"        XXXX    ............    XXXX    ....    XXXXXXXXXXXXXXXX",
"........    ....XXXX    XXXX....    ....XXXX    XXXXXXXXXXXX    ",
"........    ....XXXX    XXXX....    ....XXXX    XXXXXXXXXXXX    ",
"........    ....XXXX    XXXX....    ....XXXX    XXXXXXXXXXXX    ",
"........    ....XXXX    XXXX....    ....XXXX    XXXXXXXXXXXX    ",
"XXXXXXXX    XXXX    ....XXXXXXXX    XXXXXXXX....    XXXX    ....",
"XXXXXXXX    XXXX    ....XXXXXXXX    XXXXXXXX....    XXXX    ....",
"XXXXXXXX    XXXX    ....XXXXXXXX    XXXXXXXX....    XXXX    ....",
"XXXXXXXX    XXXX    ....XXXXXXXX    XXXXXXXX....    XXXX    ....",
"    XXXX....XXXX....    XXXXXXXX        XXXXXXXX....    ....XXXX",
"    XXXX....XXXX....    XXXXXXXX        XXXXXXXX....    ....XXXX",
"    XXXX....XXXX....    XXXXXXXX        XXXXXXXX....    ....XXXX",
"    XXXX....XXXX....    XXXXXXXX        XXXXXXXX....    ....XXXX",
"....    XXXXXXXXXXXX            ........        XXXX    XXXXXXXX",
"....    XXXXXXXXXXXX            ........        XXXX    XXXXXXXX",
"....    XXXXXXXXXXXX            ........        XXXX    XXXXXXXX",
"....    XXXXXXXXXXXX            ........        XXXX    XXXXXXXX",
"XXXX    XXXXXXXX    ............    XXXX........XXXX....        ",
"XXXX    XXXXXXXX    ............    XXXX........XXXX....        ",
"XXXX    XXXXXXXX    ............    XXXX........XXXX....        ",
"XXXX    XXXXXXXX    ............    XXXX........XXXX....        ",
"XXXX....        ....XXXXXXXXXXXX....            XXXXXXXX........",
"XXXX....        ....XXXXXXXXXXXX....            XXXXXXXX........",
"XXXX....        ....XXXXXXXXXXXX....            XXXXXXXX........",
"XXXX....        ....XXXXXXXXXXXX....            XXXXXXXX........",
"XXXXXXXX    ....        XXXXXXXX    ............        XXXXXXXX",
"XXXXXXXX    ....        XXXXXXXX    ............        XXXXXXXX",
"XXXXXXXX    ....        XXXXXXXX    ............        XXXXXXXX",
"XXXXXXXX    ....        XXXXXXXX    ............        XXXXXXXX",
"XXXXXXXX    XXXX........XXXXXXXX    XXXXXXXXXXXX........    XXXX",
"XXXXXXXX    XXXX........XXXXXXXX    XXXXXXXXXXXX........    XXXX",
"XXXXXXXX    XXXX........XXXXXXXX    XXXXXXXXXXXX........    XXXX",
"XXXXXXXX    XXXX........XXXXXXXX    XXXXXXXXXXXX........    XXXX"
};
