/* XPM */
static char *_e8a33ea04e04a98800a0718107f6acfAgiqsX7RbTGM5y1B[] = {
/* columns rows colors chars-per-pixel */
"64 64 8 1 ",
"  c #383737",
". c #464646",
"X c #565656",
"o c #5D5D5D",
"O c #656565",
"+ c #6C6C6C",
"@ c #727272",
"# c #868686",
/* pixels */
"@OO@@X ### X@@@@@OO@@X ### X@@@@@OO@@X ### X@@@@@OO@@X ### X@@@@",
"@@@@X.#@@@# XXXX@@@@X.#@@@# XXXX@@@@X.#@@@# XXXX@@@@X.#@@@# XXXX",
"XXXX.#@@+O@#.  .XXXX.#@@+O@#.  .XXXX.#@@+O@#.  .XXXX.#@@+O@#.  .",
".  .X@@+OOO@ .##.  .X@@+OOO@ .##.  .X@@+OOO@ .##.  .X@@+OOO@ .##",
"#. .X@+OO@@X #@@#. .X@+OO@@X #@@#. .X@+OO@@X #@@#. .X@+OO@@X #@@",
"@## XX@@@@X #@+@@## XX@@@@X #@+@@## XX@@@@X #@+@@## XX@@@@X #@+@",
"+@@# XXXXX #@OO++@@# XXXXX #@OO++@@# XXXXX #@OO++@@# XXXXX #@OO+",
"OO@@    ..X@OO+@OO@@    ..X@OO+@OO@@    ..X@OO+@OO@@    ..X@OO+@",
"O@@X #### X@@OOOO@@X #### X@@OOOO@@X #### X@@OOOO@@X #### X@@OOO",
"@XX #@@+@# X@@@@@XX #@@+@# X@@@@@XX #@@+@# X@@@@@XX #@@+@# X@@@@",
"X .X@+OO+@X XXXXX .X@+OO+@X XXXXX .X@+OO+@X XXXXX .X@+OO+@X XXXX",
" ##.X@+OO+X    . ##.X@+OO+X    . ##.X@+OO+X    . ##.X@+OO+X    .",
"#@@# X@+@@X  .###@@# X@+@@X  .###@@# X@+@@X  .###@@# X@+@@X  .##",
"@@@@# X@@XX ##@@@@@@# X@@XX ##@@@@@@# X@@XX ##@@@@@@# X@@XX ##@@",
"@++@@# XXX #@@+O@++@@# XXX #@@+O@++@@# XXX #@@+O@++@@# XXX #@@+O",
"OO++@@     @@+OoOO++@@     @@+OoOO++@@     @@+OoOO++@@     @@+Oo",
"@OO@@X ### X@@@@@OO@@X ### X@@@@@OO@@X ### X@@@@@OO@@X ### X@@@@",
"@@@@X.#@@@# XXXX@@@@X.#@@@# XXXX@@@@X.#@@@# XXXX@@@@X.#@@@# XXXX",
"XXXX.#@@+O@#.  .XXXX.#@@+O@#.  .XXXX.#@@+O@#.  .XXXX.#@@+O@#.  .",
".  .X@@+OOO@ .##.  .X@@+OOO@ .##.  .X@@+OOO@ .##.  .X@@+OOO@ .##",
"#. .X@+OO@@X #@@#. .X@+OO@@X #@@#. .X@+OO@@X #@@#. .X@+OO@@X #@@",
"@## XX@@@@X #@+@@## XX@@@@X #@+@@## XX@@@@X #@+@@## XX@@@@X #@+@",
"+@@# XXXXX #@OO++@@# XXXXX #@OO++@@# XXXXX #@OO++@@# XXXXX #@OO+",
"OO@@    ..X@OO+@OO@@    ..X@OO+@OO@@    ..X@OO+@OO@@    ..X@OO+@",
"O@@X #### X@@OOOO@@X #### X@@OOOO@@X #### X@@OOOO@@X #### X@@OOO",
"@XX #@@+@# X@@@@@XX #@@+@# X@@@@@XX #@@+@# X@@@@@XX #@@+@# X@@@@",
"X .X@+OO+@X XXXXX .X@+OO+@X XXXXX .X@+OO+@X XXXXX .X@+OO+@X XXXX",
" ##.X@+OO+X    . ##.X@+OO+X    . ##.X@+OO+X    . ##.X@+OO+X    .",
"#@@# X@+@@X  .###@@# X@+@@X  .###@@# X@+@@X  .###@@# X@+@@X  .##",
"@@@@# X@@XX ##@@@@@@# X@@XX ##@@@@@@# X@@XX ##@@@@@@# X@@XX ##@@",
"@++@@# XXX #@@+O@++@@# XXX #@@+O@++@@# XXX #@@+O@++@@# XXX #@@+O",
"OO++@@     @@+OoOO++@@     @@+OoOO++@@     @@+OoOO++@@     @@+Oo",
"@OO@@X ### X@@@@@OO@@X ### X@@@@@OO@@X ### X@@@@@OO@@X ### X@@@@",
"@@@@X.#@@@# XXXX@@@@X.#@@@# XXXX@@@@X.#@@@# XXXX@@@@X.#@@@# XXXX",
"XXXX.#@@+O@#.  .XXXX.#@@+O@#.  .XXXX.#@@+O@#.  .XXXX.#@@+O@#.  .",
".  .X@@+OOO@ .##.  .X@@+OOO@ .##.  .X@@+OOO@ .##.  .X@@+OOO@ .##",
"#. .X@+OO@@X #@@#. .X@+OO@@X #@@#. .X@+OO@@X #@@#. .X@+OO@@X #@@",
"@## XX@@@@X #@+@@## XX@@@@X #@+@@## XX@@@@X #@+@@## XX@@@@X #@+@",
"+@@# XXXXX #@OO++@@# XXXXX #@OO++@@# XXXXX #@OO++@@# XXXXX #@OO+",
"OO@@    ..X@OO+@OO@@    ..X@OO+@OO@@    ..X@OO+@OO@@    ..X@OO+@",
"O@@X #### X@@OOOO@@X #### X@@OOOO@@X #### X@@OOOO@@X #### X@@OOO",
"@XX #@@+@# X@@@@@XX #@@+@# X@@@@@XX #@@+@# X@@@@@XX #@@+@# X@@@@",
"X .X@+OO+@X XXXXX .X@+OO+@X XXXXX .X@+OO+@X XXXXX .X@+OO+@X XXXX",
" ##.X@+OO+X    . ##.X@+OO+X    . ##.X@+OO+X    . ##.X@+OO+X    .",
"#@@# X@+@@X  .###@@# X@+@@X  .###@@# X@+@@X  .###@@# X@+@@X  .##",
"@@@@# X@@XX ##@@@@@@# X@@XX ##@@@@@@# X@@XX ##@@@@@@# X@@XX ##@@",
"@++@@# XXX #@@+O@++@@# XXX #@@+O@++@@# XXX #@@+O@++@@# XXX #@@+O",
"OO++@@     @@+OoOO++@@     @@+OoOO++@@     @@+OoOO++@@     @@+Oo",
"@OO@@X ### X@@@@@OO@@X ### X@@@@@OO@@X ### X@@@@@OO@@X ### X@@@@",
"@@@@X.#@@@# XXXX@@@@X.#@@@# XXXX@@@@X.#@@@# XXXX@@@@X.#@@@# XXXX",
"XXXX.#@@+O@#.  .XXXX.#@@+O@#.  .XXXX.#@@+O@#.  .XXXX.#@@+O@#.  .",
".  .X@@+OOO@ .##.  .X@@+OOO@ .##.  .X@@+OOO@ .##.  .X@@+OOO@ .##",
"#. .X@+OO@@X #@@#. .X@+OO@@X #@@#. .X@+OO@@X #@@#. .X@+OO@@X #@@",
"@## XX@@@@X #@+@@## XX@@@@X #@+@@## XX@@@@X #@+@@## XX@@@@X #@+@",
"+@@# XXXXX #@OO++@@# XXXXX #@OO++@@# XXXXX #@OO++@@# XXXXX #@OO+",
"OO@@    ..X@OO+@OO@@    ..X@OO+@OO@@    ..X@OO+@OO@@    ..X@OO+@",
"O@@X #### X@@OOOO@@X #### X@@OOOO@@X #### X@@OOOO@@X #### X@@OOO",
"@XX #@@+@# X@@@@@XX #@@+@# X@@@@@XX #@@+@# X@@@@@XX #@@+@# X@@@@",
"X .X@+OO+@X XXXXX .X@+OO+@X XXXXX .X@+OO+@X XXXXX .X@+OO+@X XXXX",
" ##.X@+OO+X    . ##.X@+OO+X    . ##.X@+OO+X    . ##.X@+OO+X    .",
"#@@# X@+@@X  .###@@# X@+@@X  .###@@# X@+@@X  .###@@# X@+@@X  .##",
"@@@@# X@@XX ##@@@@@@# X@@XX ##@@@@@@# X@@XX ##@@@@@@# X@@XX ##@@",
"@++@@# XXX #@@+O@++@@# XXX #@@+O@++@@# XXX #@@+O@++@@# XXX #@@+O",
"OO++@@     @@+OoOO++@@     @@+OoOO++@@     @@+OoOO++@@     @@+Oo"
};
