/* XPM */
static char *a6a3b6646c5a4d049017d40e923973bfRjNxVV7YvOt4PYQD[] = {
/* columns rows colors chars-per-pixel */
"64 64 3 1 ",
"  c #000000",
". c gray24",
"X c #9B9B9B",
/* pixels */
"                                                                ",
"                                                                ",
"                                                                ",
"                                                                ",
"                ........                                        ",
"                ........                                        ",
"                ........                                        ",
"                ........                                        ",
"                XXXXXXXX....    ........                        ",
"                XXXXXXXX....    ........                        ",
"                XXXXXXXX....    ........                        ",
"                XXXXXXXX....    ........                        ",
"        ........        XXXX....XXXXXXXX            ....        ",
"        ........        XXXX....XXXXXXXX            ....        ",
"        ........        XXXX....XXXXXXXX            ....        ",
"        ........        XXXX....XXXXXXXX            ....        ",
"        XXXXXXXX....    ....XXXX    ........        ........    ",
"        XXXXXXXX....    ....XXXX    ........        ........    ",
"        XXXXXXXX....    ....XXXX    ........        ........    ",
"        XXXXXXXX....    ....XXXX    ........        ........    ",
"                ....    ....        ....XXXX    ....XXXXXXXX....",
"                ....    ....        ....XXXX    ....XXXXXXXX....",
"                ....    ....        ....XXXX    ....XXXXXXXX....",
"                ....    ....        ....XXXX    ....XXXXXXXX....",
"                ............        XXXX........XXXX        XXXX",
"                ............        XXXX........XXXX        XXXX",
"                ............        XXXX........XXXX        XXXX",
"                ............        XXXX........XXXX        XXXX",
"            ....XXXXXXXXXXXX....    ....XXXX....                ",
"            ....XXXXXXXXXXXX....    ....XXXX....                ",
"            ....XXXXXXXXXXXX....    ....XXXX....                ",
"            ....XXXXXXXXXXXX....    ....XXXX....                ",
"        ....XXXX    ....    XXXX....XXXX    ....                ",
"        ....XXXX    ....    XXXX....XXXX    ....                ",
"        ....XXXX    ....    XXXX....XXXX    ....                ",
"        ....XXXX    ....    XXXX....XXXX    ....                ",
"        ....    ....XXXX        ....        XXXX....            ",
"        ....    ....XXXX        ....        XXXX....            ",
"        ....    ....XXXX        ....        XXXX....            ",
"        ....    ....XXXX        ....        XXXX....            ",
"        XXXX    XXXX....        ........        XXXX            ",
"        XXXX    XXXX....        ........        XXXX            ",
"        XXXX    XXXX....        ........        XXXX            ",
"        XXXX    XXXX....        ........        XXXX            ",
"                    ............XXXXXXXX........                ",
"                    ............XXXXXXXX........                ",
"                    ............XXXXXXXX........                ",
"                    ............XXXXXXXX........                ",
"    ....        ....XXXXXXXXXXXX....    XXXXXXXX                ",
"    ....        ....XXXXXXXXXXXX....    XXXXXXXX                ",
"    ....        ....XXXXXXXXXXXX....    XXXXXXXX                ",
"    ....        ....XXXXXXXXXXXX....    XXXXXXXX                ",
"    XXXX........XXXX            XXXX............                ",
"    XXXX........XXXX            XXXX............                ",
"    XXXX........XXXX            XXXX............                ",
"    XXXX........XXXX            XXXX............                ",
"        XXXXXXXX....            ....XXXXXXXXXXXX....            ",
"        XXXXXXXX....            ....XXXXXXXXXXXX....            ",
"        XXXXXXXX....            ....XXXXXXXXXXXX....            ",
"        XXXXXXXX....            ....XXXXXXXXXXXX....            ",
"                XXXX            XXXX            XXXX            ",
"                XXXX            XXXX            XXXX            ",
"                XXXX            XXXX            XXXX            ",
"                XXXX            XXXX            XXXX            "
};
