/* XPM */
static char *_3815aff0070446dc7424dd6de407bc3Dm5iGO4rtIKvQ0S4[] = {
/* columns rows colors chars-per-pixel */
"64 64 6 1 ",
"  c #5A595A",
". c gray39",
"X c #787678",
"o c gray50",
"O c #8B898B",
"+ c #9C999C",
/* pixels */
"+++++X++++++++O +++++X++++++++O +++++X++++++++O +++++X++++++++O ",
"+OOO+ OOOoOOOOX +OOO+ OOOoOOOOX +OOO+ OOOoOOOOX +OOO+ OOOoOOOOX ",
"+OOO+ OOOOOOOOX.+OOO+ OOOOOOOOX.+OOO+ OOOOOOOOX.+OOO+ OOOOOOOOX.",
"+XOOO+ OOOoOOOX.+XOOO+ OOOoOOOX.+XOOO+ OOOoOOOX.+XOOO+ OOOoOOOX.",
"OOXOOO+  OO+OOX.OOXOOO+  OO+OOX.OOXOOO+  OO+OOX.OOXOOO+  OO+OOX.",
"+OOXOOO++ OOOOX +OOXOOO++ OOOOX +OOXOOO++ OOOOX +OOXOOO++ OOOOX ",
"XXX XXXXXX XXXX XXX XXXXXX XXXX XXX XXXXXX XXXX XXX XXXXXX XXXX ",
"                                                                ",
"+++X++O ++X++++++++X++O ++X++++++++X++O ++X++++++++X++O ++X+++++",
"OOO OOX +O OOOOOOOO OOX +O OOOOOOOO OOX +O OOOOOOOO OOX +O OOOOO",
"OO  OOX ++ OOOoOOO  OOX ++ OOOoOOO  OOX ++ OOOoOOO  OOX ++ OOOoO",
"O ++ OX +O+ OO+OO ++ OX +O+ OO+OO ++ OX +O+ OO+OO ++ OX +O+ OO+O",
" +OO+ X OOO+ X   +OO+ X OOO+ X   +OO+ X OOO+ X   +OO+ X OOO+ X  ",
"+OOOO+  +OOO+ +O+OOOO+  +OOO+ +O+OOOO+  +OOO+ +O+OOOO+  +OOO+ +O",
"XXXXXXX XXXX XXXXXXXXXX XXXX XXXXXXXXXX XXXX XXXXXXXXXX XXXX XXX",
"    ..    .         ..    .         ..    .         ..    .     ",
"+++++X++++++++O +++++X++++++++O +++++X++++++++O +++++X++++++++O ",
"+OOO+ OOOoOOOOX +OOO+ OOOoOOOOX +OOO+ OOOoOOOOX +OOO+ OOOoOOOOX ",
"+OOO+ OOOOOOOOX.+OOO+ OOOOOOOOX.+OOO+ OOOOOOOOX.+OOO+ OOOOOOOOX.",
"+XOOO+ OOOoOOOX.+XOOO+ OOOoOOOX.+XOOO+ OOOoOOOX.+XOOO+ OOOoOOOX.",
"OOXOOO+  OO+OOX.OOXOOO+  OO+OOX.OOXOOO+  OO+OOX.OOXOOO+  OO+OOX.",
"+OOXOOO++ OOOOX +OOXOOO++ OOOOX +OOXOOO++ OOOOX +OOXOOO++ OOOOX ",
"XXX XXXXXX XXXX XXX XXXXXX XXXX XXX XXXXXX XXXX XXX XXXXXX XXXX ",
"                                                                ",
"+++X++O ++X++++++++X++O ++X++++++++X++O ++X++++++++X++O ++X+++++",
"OOO OOX +O OOOOOOOO OOX +O OOOOOOOO OOX +O OOOOOOOO OOX +O OOOOO",
"OO  OOX ++ OOOoOOO  OOX ++ OOOoOOO  OOX ++ OOOoOOO  OOX ++ OOOoO",
"O ++ OX +O+ OO+OO ++ OX +O+ OO+OO ++ OX +O+ OO+OO ++ OX +O+ OO+O",
" +OO+ X OOO+ X   +OO+ X OOO+ X   +OO+ X OOO+ X   +OO+ X OOO+ X  ",
"+OOOO+  +OOO+ +O+OOOO+  +OOO+ +O+OOOO+  +OOO+ +O+OOOO+  +OOO+ +O",
"XXXXXXX XXXX XXXXXXXXXX XXXX XXXXXXXXXX XXXX XXXXXXXXXX XXXX XXX",
"    ..    .         ..    .         ..    .         ..    .     ",
"+++++X++++++++O +++++X++++++++O +++++X++++++++O +++++X++++++++O ",
"+OOO+ OOOoOOOOX +OOO+ OOOoOOOOX +OOO+ OOOoOOOOX +OOO+ OOOoOOOOX ",
"+OOO+ OOOOOOOOX.+OOO+ OOOOOOOOX.+OOO+ OOOOOOOOX.+OOO+ OOOOOOOOX.",
"+XOOO+ OOOoOOOX.+XOOO+ OOOoOOOX.+XOOO+ OOOoOOOX.+XOOO+ OOOoOOOX.",
"OOXOOO+  OO+OOX.OOXOOO+  OO+OOX.OOXOOO+  OO+OOX.OOXOOO+  OO+OOX.",
"+OOXOOO++ OOOOX +OOXOOO++ OOOOX +OOXOOO++ OOOOX +OOXOOO++ OOOOX ",
"XXX XXXXXX XXXX XXX XXXXXX XXXX XXX XXXXXX XXXX XXX XXXXXX XXXX ",
"                                                                ",
"+++X++O ++X++++++++X++O ++X++++++++X++O ++X++++++++X++O ++X+++++",
"OOO OOX +O OOOOOOOO OOX +O OOOOOOOO OOX +O OOOOOOOO OOX +O OOOOO",
"OO  OOX ++ OOOoOOO  OOX ++ OOOoOOO  OOX ++ OOOoOOO  OOX ++ OOOoO",
"O ++ OX +O+ OO+OO ++ OX +O+ OO+OO ++ OX +O+ OO+OO ++ OX +O+ OO+O",
" +OO+ X OOO+ X   +OO+ X OOO+ X   +OO+ X OOO+ X   +OO+ X OOO+ X  ",
"+OOOO+  +OOO+ +O+OOOO+  +OOO+ +O+OOOO+  +OOO+ +O+OOOO+  +OOO+ +O",
"XXXXXXX XXXX XXXXXXXXXX XXXX XXXXXXXXXX XXXX XXXXXXXXXX XXXX XXX",
"    ..    .         ..    .         ..    .         ..    .     ",
"+++++X++++++++O +++++X++++++++O +++++X++++++++O +++++X++++++++O ",
"+OOO+ OOOoOOOOX +OOO+ OOOoOOOOX +OOO+ OOOoOOOOX +OOO+ OOOoOOOOX ",
"+OOO+ OOOOOOOOX.+OOO+ OOOOOOOOX.+OOO+ OOOOOOOOX.+OOO+ OOOOOOOOX.",
"+XOOO+ OOOoOOOX.+XOOO+ OOOoOOOX.+XOOO+ OOOoOOOX.+XOOO+ OOOoOOOX.",
"OOXOOO+  OO+OOX.OOXOOO+  OO+OOX.OOXOOO+  OO+OOX.OOXOOO+  OO+OOX.",
"+OOXOOO++ OOOOX +OOXOOO++ OOOOX +OOXOOO++ OOOOX +OOXOOO++ OOOOX ",
"XXX XXXXXX XXXX XXX XXXXXX XXXX XXX XXXXXX XXXX XXX XXXXXX XXXX ",
"                                                                ",
"+++X++O ++X++++++++X++O ++X++++++++X++O ++X++++++++X++O ++X+++++",
"OOO OOX +O OOOOOOOO OOX +O OOOOOOOO OOX +O OOOOOOOO OOX +O OOOOO",
"OO  OOX ++ OOOoOOO  OOX ++ OOOoOOO  OOX ++ OOOoOOO  OOX ++ OOOoO",
"O ++ OX +O+ OO+OO ++ OX +O+ OO+OO ++ OX +O+ OO+OO ++ OX +O+ OO+O",
" +OO+ X OOO+ X   +OO+ X OOO+ X   +OO+ X OOO+ X   +OO+ X OOO+ X  ",
"+OOOO+  +OOO+ +O+OOOO+  +OOO+ +O+OOOO+  +OOO+ +O+OOOO+  +OOO+ +O",
"XXXXXXX XXXX XXXXXXXXXX XXXX XXXXXXXXXX XXXX XXXXXXXXXX XXXX XXX",
"    ..    .         ..    .         ..    .         ..    .     "
};
