/* XPM */
static char *ddbb413cd8884875df086808bce69970QTsuFVQecTXo1zfa[] = {
/* columns rows colors chars-per-pixel */
"64 64 8 1 ",
"  c #3C3A3A",
". c #4E4C4C",
"X c #5B5959",
"o c #676666",
"O c gray45",
"+ c #797979",
"@ c #888888",
"# c #9B9B9B",
/* pixels */
"@@##+ o+@@#@@##@@@##+ o+@@#@@##@@@##+ o+@@#@@##@@@##+ o+@@#@@##@",
"+++@#.X@++@++@@++++@#.X@++@++@@++++@#.X@++@++@@++++@#.X@++@++@@+",
"++O+@.X@OO+OO++O++O+@.X@OO+OO++O++O+@.X@OO+OO++O++O+@.X@OO+OO++O",
"+O++@.X+OOO+O+O++O++@.X+OOO+O+O++O++@.X+OOO+O+O++O++@.X+OOO+O+O+",
"O+O+@.XOOO+OOO++O+O+@.XOOO+OOO++O+O+@.XOOO+OOO++O+O+@.XOOO+OOO++",
"++++@.XOOOOO+OO+++++@.XOOOOO+OO+++++@.XOOOOO+OO+++++@.XOOOOO+OO+",
"XXXXO .XXXXXXXXXXXXXO .XXXXXXXXXXXXXO .XXXXXXXXXXXXXO .XXXXXXXXX",
"....   ..   ........   ..   ........   ..   ........   ..   ....",
"@@##@@##@+ oO@@@@@##@@##@+ oO@@@@@##@@##@+ oO@@@@@##@@##@+ oO@@@",
"+O++OO@@+@.X@++O+O++OO@@+@.X@++O+O++OO@@+@.X@++O+O++OO@@+@.X@++O",
"+OOOOO+O+#.X@OO++OOOOO+O+#.X@OO++OOOOO+O+#.X@OO++OOOOO+O+#.X@OO+",
"OO++O+O+@#.X+O+OOO++O+O+@#.X+O+OOO++O+O+@#.X+O+OOO++O+O+@#.X+O+O",
"+++++O+O+@.X+++O+++++O+O+@.X+++O+++++O+O+@.X+++O+++++O+O+@.X+++O",
"++OO+++++@.XO+++++OO+++++@.XO+++++OO+++++@.XO+++++OO+++++@.XO+++",
"XXXXXXXXXO .XXXXXXXXXXXXXO .XXXXXXXXXXXXXO .XXXXXXXXXXXXXO .XXXX",
"....   ..   ........   ..   ........   ..   ........   ..   ....",
"@@##+ o+@@#@@##@@@##+ o+@@#@@##@@@##+ o+@@#@@##@@@##+ o+@@#@@##@",
"+++@#.X@++@++@@++++@#.X@++@++@@++++@#.X@++@++@@++++@#.X@++@++@@+",
"++O+@.X@OO+OO++O++O+@.X@OO+OO++O++O+@.X@OO+OO++O++O+@.X@OO+OO++O",
"+O++@.X+OOO+O+O++O++@.X+OOO+O+O++O++@.X+OOO+O+O++O++@.X+OOO+O+O+",
"O+O+@.XOOO+OOO++O+O+@.XOOO+OOO++O+O+@.XOOO+OOO++O+O+@.XOOO+OOO++",
"++++@.XOOOOO+OO+++++@.XOOOOO+OO+++++@.XOOOOO+OO+++++@.XOOOOO+OO+",
"XXXXO .XXXXXXXXXXXXXO .XXXXXXXXXXXXXO .XXXXXXXXXXXXXO .XXXXXXXXX",
"....   ..   ........   ..   ........   ..   ........   ..   ....",
"@@##@@##@+ oO@@@@@##@@##@+ oO@@@@@##@@##@+ oO@@@@@##@@##@+ oO@@@",
"+O++OO@@+@.X@++O+O++OO@@+@.X@++O+O++OO@@+@.X@++O+O++OO@@+@.X@++O",
"+OOOOO+O+#.X@OO++OOOOO+O+#.X@OO++OOOOO+O+#.X@OO++OOOOO+O+#.X@OO+",
"OO++O+O+@#.X+O+OOO++O+O+@#.X+O+OOO++O+O+@#.X+O+OOO++O+O+@#.X+O+O",
"+++++O+O+@.X+++O+++++O+O+@.X+++O+++++O+O+@.X+++O+++++O+O+@.X+++O",
"++OO+++++@.XO+++++OO+++++@.XO+++++OO+++++@.XO+++++OO+++++@.XO+++",
"XXXXXXXXXO .XXXXXXXXXXXXXO .XXXXXXXXXXXXXO .XXXXXXXXXXXXXO .XXXX",
"....   ..   ........   ..   ........   ..   ........   ..   ....",
"@@##+ o+@@#@@##@@@##+ o+@@#@@##@@@##+ o+@@#@@##@@@##+ o+@@#@@##@",
"+++@#.X@++@++@@++++@#.X@++@++@@++++@#.X@++@++@@++++@#.X@++@++@@+",
"++O+@.X@OO+OO++O++O+@.X@OO+OO++O++O+@.X@OO+OO++O++O+@.X@OO+OO++O",
"+O++@.X+OOO+O+O++O++@.X+OOO+O+O++O++@.X+OOO+O+O++O++@.X+OOO+O+O+",
"O+O+@.XOOO+OOO++O+O+@.XOOO+OOO++O+O+@.XOOO+OOO++O+O+@.XOOO+OOO++",
"++++@.XOOOOO+OO+++++@.XOOOOO+OO+++++@.XOOOOO+OO+++++@.XOOOOO+OO+",
"XXXXO .XXXXXXXXXXXXXO .XXXXXXXXXXXXXO .XXXXXXXXXXXXXO .XXXXXXXXX",
"....   ..   ........   ..   ........   ..   ........   ..   ....",
"@@##@@##@+ oO@@@@@##@@##@+ oO@@@@@##@@##@+ oO@@@@@##@@##@+ oO@@@",
"+O++OO@@+@.X@++O+O++OO@@+@.X@++O+O++OO@@+@.X@++O+O++OO@@+@.X@++O",
"+OOOOO+O+#.X@OO++OOOOO+O+#.X@OO++OOOOO+O+#.X@OO++OOOOO+O+#.X@OO+",
"OO++O+O+@#.X+O+OOO++O+O+@#.X+O+OOO++O+O+@#.X+O+OOO++O+O+@#.X+O+O",
"+++++O+O+@.X+++O+++++O+O+@.X+++O+++++O+O+@.X+++O+++++O+O+@.X+++O",
"++OO+++++@.XO+++++OO+++++@.XO+++++OO+++++@.XO+++++OO+++++@.XO+++",
"XXXXXXXXXO .XXXXXXXXXXXXXO .XXXXXXXXXXXXXO .XXXXXXXXXXXXXO .XXXX",
"....   ..   ........   ..   ........   ..   ........   ..   ....",
"@@##+ o+@@#@@##@@@##+ o+@@#@@##@@@##+ o+@@#@@##@@@##+ o+@@#@@##@",
"+++@#.X@++@++@@++++@#.X@++@++@@++++@#.X@++@++@@++++@#.X@++@++@@+",
"++O+@.X@OO+OO++O++O+@.X@OO+OO++O++O+@.X@OO+OO++O++O+@.X@OO+OO++O",
"+O++@.X+OOO+O+O++O++@.X+OOO+O+O++O++@.X+OOO+O+O++O++@.X+OOO+O+O+",
"O+O+@.XOOO+OOO++O+O+@.XOOO+OOO++O+O+@.XOOO+OOO++O+O+@.XOOO+OOO++",
"++++@.XOOOOO+OO+++++@.XOOOOO+OO+++++@.XOOOOO+OO+++++@.XOOOOO+OO+",
"XXXXO .XXXXXXXXXXXXXO .XXXXXXXXXXXXXO .XXXXXXXXXXXXXO .XXXXXXXXX",
"....   ..   ........   ..   ........   ..   ........   ..   ....",
"@@##@@##@+ oO@@@@@##@@##@+ oO@@@@@##@@##@+ oO@@@@@##@@##@+ oO@@@",
"+O++OO@@+@.X@++O+O++OO@@+@.X@++O+O++OO@@+@.X@++O+O++OO@@+@.X@++O",
"+OOOOO+O+#.X@OO++OOOOO+O+#.X@OO++OOOOO+O+#.X@OO++OOOOO+O+#.X@OO+",
"OO++O+O+@#.X+O+OOO++O+O+@#.X+O+OOO++O+O+@#.X+O+OOO++O+O+@#.X+O+O",
"+++++O+O+@.X+++O+++++O+O+@.X+++O+++++O+O+@.X+++O+++++O+O+@.X+++O",
"++OO+++++@.XO+++++OO+++++@.XO+++++OO+++++@.XO+++++OO+++++@.XO+++",
"XXXXXXXXXO .XXXXXXXXXXXXXO .XXXXXXXXXXXXXO .XXXXXXXXXXXXXO .XXXX",
"....   ..   ........   ..   ........   ..   ........   ..   ...."
};
