/* XPM */
static char *b3080acbf78b4086d1c5e54645e3e8b3SUXQCylj3H1T5WdF[] = {
/* columns rows colors chars-per-pixel */
"64 64 8 1 ",
"  c #3C3A3A",
". c #4E4C4C",
"X c #5B5959",
"o c #676666",
"O c gray45",
"+ c #797979",
"@ c #888888",
"# c #9B9B9B",
/* pixels */
"@@##+.@+@@#@@##@@@##+.@+@@#@@##@@@##+.@+@@#@@##@@@##+.@+@@#@@##@",
"+++@#.+O++@++@@++++@#.+O++@++@@++++@#.+O++@++@@++++@#.+O++@++@@+",
"++O+@XOOOO+OO++O++O+@XOOOO+OO++O++O+@XOOOO+OO++O++O+@XOOOO+OO++O",
"+O++@XO+OOO+O+O++O++@XO+OOO+O+O++O++@XO+OOO+O+O++O++@XO+OOO+O+O+",
"O+O+@XoOOO+OOO++O+O+@XoOOO+OOO++O+O+@XoOOO+OOO++O+O+@XoOOO+OOO++",
"++++@.oOOOOO+OO+++++@.oOOOOO+OO+++++@.oOOOOO+OO+++++@.oOOOOO+OO+",
"ooooO.XoooooooooooooO.XoooooooooooooO.XoooooooooooooO.Xooooooooo",
"XXX.. .XX. ..XXXXXX.. .XX. ..XXXXXX.. .XX. ..XXXXXX.. .XX. ..XXX",
"@@##@@##@+.+@@#@@@##@@##@+.+@@#@@@##@@##@+.+@@#@@@##@@##@+.+@@#@",
"+O++OO@@+@.O+O+O+O++OO@@+@.O+O+O+O++OO@@+@.O+O+O+O++OO@@+@.O+O+O",
"+OOOOO+O+#XO+OO++OOOOO+O+#XO+OO++OOOOO+O+#XO+OO++OOOOO+O+#XO+OO+",
"OO++O+O+@#XO+O+OOO++O+O+@#XO+O+OOO++O+O+@#XO+O+OOO++O+O+@#XO+O+O",
"+++++O+O+@XO+++O+++++O+O+@XO+++O+++++O+O+@XO+++O+++++O+O+@XO+++O",
"++OO+++++@.oO+++++OO+++++@.oO+++++OO+++++@.oO+++++OO+++++@.oO+++",
"oooooooooO XoooooooooooooO XoooooooooooooO XoooooooooooooO Xoooo",
"...X. .X.   .XX....X. .X.   .XX....X. .X.   .XX....X. .X.   .XX.",
"@@##+.@+@@#@@##@@@##+.@+@@#@@##@@@##+.@+@@#@@##@@@##+.@+@@#@@##@",
"+++@#.+O++@++@@++++@#.+O++@++@@++++@#.+O++@++@@++++@#.+O++@++@@+",
"++O+@XOOOO+OO++O++O+@XOOOO+OO++O++O+@XOOOO+OO++O++O+@XOOOO+OO++O",
"+O++@XO+OOO+O+O++O++@XO+OOO+O+O++O++@XO+OOO+O+O++O++@XO+OOO+O+O+",
"O+O+@XoOOO+OOO++O+O+@XoOOO+OOO++O+O+@XoOOO+OOO++O+O+@XoOOO+OOO++",
"++++@.oOOOOO+OO+++++@.oOOOOO+OO+++++@.oOOOOO+OO+++++@.oOOOOO+OO+",
"ooooO.XoooooooooooooO.XoooooooooooooO.XoooooooooooooO.Xooooooooo",
"XXX.. .XX. ..XXXXXX.. .XX. ..XXXXXX.. .XX. ..XXXXXX.. .XX. ..XXX",
"@@##@@##@+.+@@#@@@##@@##@+.+@@#@@@##@@##@+.+@@#@@@##@@##@+.+@@#@",
"+O++OO@@+@.O+O+O+O++OO@@+@.O+O+O+O++OO@@+@.O+O+O+O++OO@@+@.O+O+O",
"+OOOOO+O+#XO+OO++OOOOO+O+#XO+OO++OOOOO+O+#XO+OO++OOOOO+O+#XO+OO+",
"OO++O+O+@#XO+O+OOO++O+O+@#XO+O+OOO++O+O+@#XO+O+OOO++O+O+@#XO+O+O",
"+++++O+O+@XO+++O+++++O+O+@XO+++O+++++O+O+@XO+++O+++++O+O+@XO+++O",
"++OO+++++@.oO+++++OO+++++@.oO+++++OO+++++@.oO+++++OO+++++@.oO+++",
"oooooooooO XoooooooooooooO XoooooooooooooO XoooooooooooooO Xoooo",
"...X. .X.   .XX....X. .X.   .XX....X. .X.   .XX....X. .X.   .XX.",
"@@##+.@+@@#@@##@@@##+.@+@@#@@##@@@##+.@+@@#@@##@@@##+.@+@@#@@##@",
"+++@#.+O++@++@@++++@#.+O++@++@@++++@#.+O++@++@@++++@#.+O++@++@@+",
"++O+@XOOOO+OO++O++O+@XOOOO+OO++O++O+@XOOOO+OO++O++O+@XOOOO+OO++O",
"+O++@XO+OOO+O+O++O++@XO+OOO+O+O++O++@XO+OOO+O+O++O++@XO+OOO+O+O+",
"O+O+@XoOOO+OOO++O+O+@XoOOO+OOO++O+O+@XoOOO+OOO++O+O+@XoOOO+OOO++",
"++++@.oOOOOO+OO+++++@.oOOOOO+OO+++++@.oOOOOO+OO+++++@.oOOOOO+OO+",
"ooooO.XoooooooooooooO.XoooooooooooooO.XoooooooooooooO.Xooooooooo",
"XXX.. .XX. ..XXXXXX.. .XX. ..XXXXXX.. .XX. ..XXXXXX.. .XX. ..XXX",
"@@##@@##@+.+@@#@@@##@@##@+.+@@#@@@##@@##@+.+@@#@@@##@@##@+.+@@#@",
"+O++OO@@+@.O+O+O+O++OO@@+@.O+O+O+O++OO@@+@.O+O+O+O++OO@@+@.O+O+O",
"+OOOOO+O+#XO+OO++OOOOO+O+#XO+OO++OOOOO+O+#XO+OO++OOOOO+O+#XO+OO+",
"OO++O+O+@#XO+O+OOO++O+O+@#XO+O+OOO++O+O+@#XO+O+OOO++O+O+@#XO+O+O",
"+++++O+O+@XO+++O+++++O+O+@XO+++O+++++O+O+@XO+++O+++++O+O+@XO+++O",
"++OO+++++@.oO+++++OO+++++@.oO+++++OO+++++@.oO+++++OO+++++@.oO+++",
"oooooooooO XoooooooooooooO XoooooooooooooO XoooooooooooooO Xoooo",
"...X. .X.   .XX....X. .X.   .XX....X. .X.   .XX....X. .X.   .XX.",
"@@##+.@+@@#@@##@@@##+.@+@@#@@##@@@##+.@+@@#@@##@@@##+.@+@@#@@##@",
"+++@#.+O++@++@@++++@#.+O++@++@@++++@#.+O++@++@@++++@#.+O++@++@@+",
"++O+@XOOOO+OO++O++O+@XOOOO+OO++O++O+@XOOOO+OO++O++O+@XOOOO+OO++O",
"+O++@XO+OOO+O+O++O++@XO+OOO+O+O++O++@XO+OOO+O+O++O++@XO+OOO+O+O+",
"O+O+@XoOOO+OOO++O+O+@XoOOO+OOO++O+O+@XoOOO+OOO++O+O+@XoOOO+OOO++",
"++++@.oOOOOO+OO+++++@.oOOOOO+OO+++++@.oOOOOO+OO+++++@.oOOOOO+OO+",
"ooooO.XoooooooooooooO.XoooooooooooooO.XoooooooooooooO.Xooooooooo",
"XXX.. .XX. ..XXXXXX.. .XX. ..XXXXXX.. .XX. ..XXXXXX.. .XX. ..XXX",
"@@##@@##@+.+@@#@@@##@@##@+.+@@#@@@##@@##@+.+@@#@@@##@@##@+.+@@#@",
"+O++OO@@+@.O+O+O+O++OO@@+@.O+O+O+O++OO@@+@.O+O+O+O++OO@@+@.O+O+O",
"+OOOOO+O+#XO+OO++OOOOO+O+#XO+OO++OOOOO+O+#XO+OO++OOOOO+O+#XO+OO+",
"OO++O+O+@#XO+O+OOO++O+O+@#XO+O+OOO++O+O+@#XO+O+OOO++O+O+@#XO+O+O",
"+++++O+O+@XO+++O+++++O+O+@XO+++O+++++O+O+@XO+++O+++++O+O+@XO+++O",
"++OO+++++@.oO+++++OO+++++@.oO+++++OO+++++@.oO+++++OO+++++@.oO+++",
"oooooooooO XoooooooooooooO XoooooooooooooO XoooooooooooooO Xoooo",
"...X. .X.   .XX....X. .X.   .XX....X. .X.   .XX....X. .X.   .XX."
};
